<svg width="34" height="33" viewBox="0 0 34 33" fill="none" xmlns="http://www.w3.org/2000/svg">
<path d="M15.3 24.75H18.7V14.85H15.3V24.75ZM17 11.55C17.4817 11.55 17.8854 11.3919 18.2113 11.0756C18.5371 10.7594 18.7 10.3675 18.7 9.9C18.7 9.4325 18.5371 9.04062 18.2113 8.72437C17.8854 8.40812 17.4817 8.25 17 8.25C16.5183 8.25 16.1146 8.40812 15.7888 8.72437C15.4629 9.04062 15.3 9.4325 15.3 9.9C15.3 10.3675 15.4629 10.7594 15.7888 11.0756C16.1146 11.3919 16.5183 11.55 17 11.55ZM17 33C14.6483 33 12.4383 32.5669 10.37 31.7006C8.30167 30.8344 6.5025 29.6588 4.9725 28.1737C3.4425 26.6888 2.23125 24.9425 1.33875 22.935C0.44625 20.9275 0 18.7825 0 16.5C0 14.2175 0.44625 12.0725 1.33875 10.065C2.23125 8.0575 3.4425 6.31125 4.9725 4.82625C6.5025 3.34125 8.30167 2.16563 10.37 1.29938C12.4383 0.433125 14.6483 0 17 0C19.3517 0 21.5617 0.433125 23.63 1.29938C25.6983 2.16563 27.4975 3.34125 29.0275 4.82625C30.5575 6.31125 31.7687 8.0575 32.6613 10.065C33.5537 12.0725 34 14.2175 34 16.5C34 18.7825 33.5537 20.9275 32.6613 22.935C31.7687 24.9425 30.5575 26.6888 29.0275 28.1737C27.4975 29.6588 25.6983 30.8344 23.63 31.7006C21.5617 32.5669 19.3517 33 17 33ZM17 29.7C20.7967 29.7 24.0125 28.4212 26.6475 25.8638C29.2825 23.3062 30.6 20.185 30.6 16.5C30.6 12.815 29.2825 9.69375 26.6475 7.13625C24.0125 4.57875 20.7967 3.3 17 3.3C13.2033 3.3 9.9875 4.57875 7.3525 7.13625C4.7175 9.69375 3.4 12.815 3.4 16.5C3.4 20.185 4.7175 23.3062 7.3525 25.8638C9.9875 28.4212 13.2033 29.7 17 29.7Z" fill="#BB3B4E"/>
</svg>
