<svg width="16" height="14" viewBox="0 0 16 14" fill="none" xmlns="http://www.w3.org/2000/svg">
<path d="M8.11577 12.884C8.23184 13.0001 8.36966 13.0922 8.52134 13.1551C8.67301 13.2179 8.83559 13.2502 8.99977 13.2502C9.16395 13.2502 9.32652 13.2179 9.4782 13.1551C9.62988 13.0922 9.76769 13.0001 9.88377 12.884L14.8838 7.88401C14.9999 7.76793 15.092 7.63012 15.1548 7.47844C15.2177 7.32676 15.25 7.16419 15.25 7.00001C15.25 6.83583 15.2177 6.67326 15.1548 6.52158C15.092 6.3699 14.9999 6.23209 14.8838 6.11601L9.88377 1.11601C9.64932 0.881559 9.33133 0.749847 8.99977 0.749847C8.6682 0.749847 8.35022 0.881559 8.11577 1.11601C7.88132 1.35046 7.7496 1.66845 7.7496 2.00001C7.7496 2.33158 7.88132 2.64956 8.11577 2.88401L10.9818 5.75001L1.99977 5.75001C1.66825 5.75001 1.3503 5.88171 1.11588 6.11613C0.881462 6.35055 0.749767 6.66849 0.749767 7.00001C0.749767 7.33153 0.881462 7.64947 1.11588 7.88389C1.3503 8.11831 1.66825 8.25001 1.99977 8.25001L10.9818 8.25001L8.11577 11.116C7.99966 11.2321 7.90755 11.3699 7.84472 11.5216C7.78188 11.6733 7.74953 11.8358 7.74953 12C7.74953 12.1642 7.78188 12.3268 7.84472 12.4784C7.90755 12.6301 7.99966 12.7679 8.11577 12.884Z" fill="#F9E396"/>
</svg>
